<mxfile host="app.diagrams.net" modified="2023-05-04T22:33:22.440Z" agent="Mozilla/5.0 (Windows NT 10.0; Win64; x64) AppleWebKit/537.36 (KHTML, like Gecko) Chrome/113.0.0.0 Safari/537.36" etag="N4FqHkUMybRQI82CjTss" version="21.2.8" type="device">
  <diagram name="Страница 1" id="jAnc2djemMdsd_oLwjay">
    <mxGraphModel dx="897" dy="794" grid="0" gridSize="10" guides="1" tooltips="1" connect="1" arrows="1" fold="1" page="0" pageScale="1" pageWidth="827" pageHeight="1169" math="0" shadow="0">
      <root>
        <mxCell id="0" />
        <mxCell id="1" parent="0" />
        <mxCell id="n9e7eHjVjbtDKGxGQsoX-1" value="Administrator" style="shape=umlActor;verticalLabelPosition=bottom;verticalAlign=top;html=1;" vertex="1" parent="1">
          <mxGeometry x="120" y="230" width="20" height="40" as="geometry" />
        </mxCell>
        <mxCell id="n9e7eHjVjbtDKGxGQsoX-3" value="&lt;font size=&quot;1&quot;&gt;Создание таблиц&lt;/font&gt;" style="ellipse;whiteSpace=wrap;html=1;" vertex="1" parent="1">
          <mxGeometry x="170" y="160" width="90" height="40" as="geometry" />
        </mxCell>
        <mxCell id="n9e7eHjVjbtDKGxGQsoX-4" value="&lt;font size=&quot;1&quot;&gt;Удаление таблиц&lt;/font&gt;" style="ellipse;whiteSpace=wrap;html=1;" vertex="1" parent="1">
          <mxGeometry x="210" y="230" width="90" height="40" as="geometry" />
        </mxCell>
        <mxCell id="n9e7eHjVjbtDKGxGQsoX-5" value="&lt;font size=&quot;1&quot;&gt;Создание ролей&lt;/font&gt;" style="ellipse;whiteSpace=wrap;html=1;" vertex="1" parent="1">
          <mxGeometry x="-30" y="210" width="90" height="40" as="geometry" />
        </mxCell>
        <mxCell id="n9e7eHjVjbtDKGxGQsoX-6" value="&lt;font size=&quot;1&quot;&gt;Удаление ролей&lt;/font&gt;" style="ellipse;whiteSpace=wrap;html=1;" vertex="1" parent="1">
          <mxGeometry x="10" y="150" width="90" height="40" as="geometry" />
        </mxCell>
        <mxCell id="n9e7eHjVjbtDKGxGQsoX-7" value="&lt;font size=&quot;1&quot;&gt;Удаление пользователей&lt;/font&gt;" style="ellipse;whiteSpace=wrap;html=1;" vertex="1" parent="1">
          <mxGeometry x="210" y="290" width="90" height="40" as="geometry" />
        </mxCell>
        <mxCell id="n9e7eHjVjbtDKGxGQsoX-8" value="&lt;font size=&quot;1&quot;&gt;Создание пользователей&lt;/font&gt;" style="ellipse;whiteSpace=wrap;html=1;" vertex="1" parent="1">
          <mxGeometry x="-10" y="290" width="90" height="40" as="geometry" />
        </mxCell>
        <mxCell id="n9e7eHjVjbtDKGxGQsoX-11" value="" style="endArrow=classic;html=1;rounded=0;entryX=0;entryY=1;entryDx=0;entryDy=0;" edge="1" parent="1" target="n9e7eHjVjbtDKGxGQsoX-3">
          <mxGeometry width="50" height="50" relative="1" as="geometry">
            <mxPoint x="140" y="230" as="sourcePoint" />
            <mxPoint x="190" y="180" as="targetPoint" />
          </mxGeometry>
        </mxCell>
        <mxCell id="n9e7eHjVjbtDKGxGQsoX-12" value="" style="endArrow=classic;html=1;rounded=0;entryX=0;entryY=0.25;entryDx=0;entryDy=0;entryPerimeter=0;" edge="1" parent="1" target="n9e7eHjVjbtDKGxGQsoX-4">
          <mxGeometry width="50" height="50" relative="1" as="geometry">
            <mxPoint x="140" y="240" as="sourcePoint" />
            <mxPoint x="193" y="204" as="targetPoint" />
          </mxGeometry>
        </mxCell>
        <mxCell id="n9e7eHjVjbtDKGxGQsoX-13" value="" style="endArrow=classic;html=1;rounded=0;entryX=0.198;entryY=-0.033;entryDx=0;entryDy=0;entryPerimeter=0;" edge="1" parent="1" target="n9e7eHjVjbtDKGxGQsoX-7">
          <mxGeometry width="50" height="50" relative="1" as="geometry">
            <mxPoint x="150" y="270" as="sourcePoint" />
            <mxPoint x="180" y="300" as="targetPoint" />
          </mxGeometry>
        </mxCell>
        <mxCell id="n9e7eHjVjbtDKGxGQsoX-14" value="" style="endArrow=classic;html=1;rounded=0;entryX=0.991;entryY=0.175;entryDx=0;entryDy=0;entryPerimeter=0;" edge="1" parent="1" target="n9e7eHjVjbtDKGxGQsoX-8">
          <mxGeometry width="50" height="50" relative="1" as="geometry">
            <mxPoint x="110" y="260" as="sourcePoint" />
            <mxPoint x="140" y="310" as="targetPoint" />
          </mxGeometry>
        </mxCell>
        <mxCell id="n9e7eHjVjbtDKGxGQsoX-15" value="" style="endArrow=classic;html=1;rounded=0;entryX=1;entryY=0.675;entryDx=0;entryDy=0;entryPerimeter=0;" edge="1" parent="1" target="n9e7eHjVjbtDKGxGQsoX-5">
          <mxGeometry width="50" height="50" relative="1" as="geometry">
            <mxPoint x="110" y="240" as="sourcePoint" />
            <mxPoint x="110" y="220" as="targetPoint" />
          </mxGeometry>
        </mxCell>
        <mxCell id="n9e7eHjVjbtDKGxGQsoX-16" value="" style="endArrow=classic;html=1;rounded=0;entryX=0.972;entryY=0.758;entryDx=0;entryDy=0;entryPerimeter=0;" edge="1" parent="1" target="n9e7eHjVjbtDKGxGQsoX-6">
          <mxGeometry width="50" height="50" relative="1" as="geometry">
            <mxPoint x="120" y="220" as="sourcePoint" />
            <mxPoint x="150" y="160" as="targetPoint" />
          </mxGeometry>
        </mxCell>
        <mxCell id="n9e7eHjVjbtDKGxGQsoX-17" value="Manager" style="shape=umlActor;verticalLabelPosition=bottom;verticalAlign=top;html=1;" vertex="1" parent="1">
          <mxGeometry x="513" y="230" width="20" height="40" as="geometry" />
        </mxCell>
        <mxCell id="n9e7eHjVjbtDKGxGQsoX-18" value="&lt;font size=&quot;1&quot;&gt;Изменение существующих записей&lt;/font&gt;" style="ellipse;whiteSpace=wrap;html=1;" vertex="1" parent="1">
          <mxGeometry x="570" y="170" width="103" height="50" as="geometry" />
        </mxCell>
        <mxCell id="n9e7eHjVjbtDKGxGQsoX-19" value="&lt;font size=&quot;1&quot;&gt;Управление данными туристов&lt;/font&gt;" style="ellipse;whiteSpace=wrap;html=1;" vertex="1" parent="1">
          <mxGeometry x="580" y="285" width="119" height="50" as="geometry" />
        </mxCell>
        <mxCell id="n9e7eHjVjbtDKGxGQsoX-20" value="&lt;font size=&quot;1&quot;&gt;Управление данными поставщиков услуг&lt;/font&gt;" style="ellipse;whiteSpace=wrap;html=1;" vertex="1" parent="1">
          <mxGeometry x="359" y="260" width="110" height="80" as="geometry" />
        </mxCell>
        <mxCell id="n9e7eHjVjbtDKGxGQsoX-21" value="&lt;font size=&quot;1&quot;&gt;Добавление новых записей&lt;/font&gt;" style="ellipse;whiteSpace=wrap;html=1;" vertex="1" parent="1">
          <mxGeometry x="379" y="170" width="90" height="40" as="geometry" />
        </mxCell>
        <mxCell id="n9e7eHjVjbtDKGxGQsoX-24" value="" style="endArrow=classic;html=1;rounded=0;entryX=0;entryY=1;entryDx=0;entryDy=0;" edge="1" parent="1" target="n9e7eHjVjbtDKGxGQsoX-18">
          <mxGeometry width="50" height="50" relative="1" as="geometry">
            <mxPoint x="533" y="230" as="sourcePoint" />
            <mxPoint x="583" y="180" as="targetPoint" />
          </mxGeometry>
        </mxCell>
        <mxCell id="n9e7eHjVjbtDKGxGQsoX-25" value="" style="endArrow=classic;html=1;rounded=0;entryX=0.059;entryY=0.18;entryDx=0;entryDy=0;entryPerimeter=0;" edge="1" parent="1" target="n9e7eHjVjbtDKGxGQsoX-19">
          <mxGeometry width="50" height="50" relative="1" as="geometry">
            <mxPoint x="533" y="240" as="sourcePoint" />
            <mxPoint x="603" y="240" as="targetPoint" />
          </mxGeometry>
        </mxCell>
        <mxCell id="n9e7eHjVjbtDKGxGQsoX-28" value="" style="endArrow=classic;html=1;rounded=0;entryX=0.864;entryY=0.063;entryDx=0;entryDy=0;entryPerimeter=0;" edge="1" parent="1" target="n9e7eHjVjbtDKGxGQsoX-20">
          <mxGeometry width="50" height="50" relative="1" as="geometry">
            <mxPoint x="503" y="240" as="sourcePoint" />
            <mxPoint x="452.9999999999998" y="244" as="targetPoint" />
          </mxGeometry>
        </mxCell>
        <mxCell id="n9e7eHjVjbtDKGxGQsoX-29" value="" style="endArrow=classic;html=1;rounded=0;entryX=0.972;entryY=0.758;entryDx=0;entryDy=0;entryPerimeter=0;" edge="1" parent="1" target="n9e7eHjVjbtDKGxGQsoX-21">
          <mxGeometry width="50" height="50" relative="1" as="geometry">
            <mxPoint x="513" y="220" as="sourcePoint" />
            <mxPoint x="543" y="160" as="targetPoint" />
          </mxGeometry>
        </mxCell>
        <mxCell id="n9e7eHjVjbtDKGxGQsoX-30" value="User" style="shape=umlActor;verticalLabelPosition=bottom;verticalAlign=top;html=1;" vertex="1" parent="1">
          <mxGeometry x="327" y="480" width="20" height="40" as="geometry" />
        </mxCell>
        <mxCell id="n9e7eHjVjbtDKGxGQsoX-31" value="&lt;font size=&quot;1&quot;&gt;Бронирование туристических туров&lt;/font&gt;" style="ellipse;whiteSpace=wrap;html=1;" vertex="1" parent="1">
          <mxGeometry x="300" y="370" width="126" height="50" as="geometry" />
        </mxCell>
        <mxCell id="n9e7eHjVjbtDKGxGQsoX-32" value="&lt;font size=&quot;1&quot;&gt;Изменение собственных данных&lt;/font&gt;" style="ellipse;whiteSpace=wrap;html=1;" vertex="1" parent="1">
          <mxGeometry x="414" y="465" width="136" height="55" as="geometry" />
        </mxCell>
        <mxCell id="n9e7eHjVjbtDKGxGQsoX-34" value="&lt;font size=&quot;1&quot;&gt;Поиск туристических туров&lt;/font&gt;" style="ellipse;whiteSpace=wrap;html=1;" vertex="1" parent="1">
          <mxGeometry x="140" y="450" width="123" height="50" as="geometry" />
        </mxCell>
        <mxCell id="n9e7eHjVjbtDKGxGQsoX-35" value="" style="endArrow=classic;html=1;rounded=0;entryX=0.403;entryY=1.099;entryDx=0;entryDy=0;entryPerimeter=0;" edge="1" parent="1" target="n9e7eHjVjbtDKGxGQsoX-31">
          <mxGeometry width="50" height="50" relative="1" as="geometry">
            <mxPoint x="340" y="470" as="sourcePoint" />
            <mxPoint x="397" y="430" as="targetPoint" />
          </mxGeometry>
        </mxCell>
        <mxCell id="n9e7eHjVjbtDKGxGQsoX-36" value="" style="endArrow=classic;html=1;rounded=0;entryX=0;entryY=0.5;entryDx=0;entryDy=0;" edge="1" parent="1" target="n9e7eHjVjbtDKGxGQsoX-32">
          <mxGeometry width="50" height="50" relative="1" as="geometry">
            <mxPoint x="347" y="490" as="sourcePoint" />
            <mxPoint x="417" y="490" as="targetPoint" />
          </mxGeometry>
        </mxCell>
        <mxCell id="n9e7eHjVjbtDKGxGQsoX-38" value="" style="endArrow=classic;html=1;rounded=0;entryX=0.972;entryY=0.758;entryDx=0;entryDy=0;entryPerimeter=0;" edge="1" parent="1" target="n9e7eHjVjbtDKGxGQsoX-34">
          <mxGeometry width="50" height="50" relative="1" as="geometry">
            <mxPoint x="320" y="490" as="sourcePoint" />
            <mxPoint x="357" y="410" as="targetPoint" />
          </mxGeometry>
        </mxCell>
      </root>
    </mxGraphModel>
  </diagram>
</mxfile>
